<?xml version="1.0" encoding="UTF-8" standalone="no"?>
<!DOCTYPE svg PUBLIC "-//W3C//DTD SVG 1.1//EN" "http://www.w3.org/Graphics/SVG/1.1/DTD/svg11.dtd">
<svg width="100%" height="100%" viewBox="0 0 1080 1080" version="1.1" xmlns="http://www.w3.org/2000/svg" xmlns:xlink="http://www.w3.org/1999/xlink" xml:space="preserve" xmlns:serif="http://www.serif.com/" style="fill-rule:evenodd;clip-rule:evenodd;stroke-linejoin:round;stroke-miterlimit:2;">
    <g>
        <path d="M814.541,545.809C797.325,539.755 793.804,558.829 803.934,564.194C821.425,573.459 881.764,604.219 898.791,612.69C920.942,623.711 928.266,591.51 914.297,585.945C895.923,578.625 831.543,551.787 814.541,545.809Z" style="fill:rgb(95,191,255);"/>
        <path d="M791.913,432.24C781.954,439.686 795.062,454.893 802.78,449.871C814.082,442.518 890.548,392.886 906.154,382.742C908.865,380.98 910.156,369.963 905.627,363.827C901.238,357.88 892.246,356.304 888.094,359.163C872.576,369.849 808.721,419.673 791.913,432.24Z" style="fill:rgb(95,191,255);"/>
        <path d="M816.428,487.608C804.364,489.503 806.189,508.84 816.591,508.263C837.895,507.081 912.108,502.795 929.128,501.178C944.661,499.702 943.591,468.107 923.128,471.224C905.023,473.981 837.516,484.294 816.428,487.608Z" style="fill:rgb(95,191,255);"/>
    </g>
</svg>
