<?xml version="1.0" encoding="UTF-8" standalone="no"?>
<!DOCTYPE svg PUBLIC "-//W3C//DTD SVG 1.1//EN" "http://www.w3.org/Graphics/SVG/1.1/DTD/svg11.dtd">
<svg width="100%" height="100%" viewBox="0 0 1080 1080" version="1.1" xmlns="http://www.w3.org/2000/svg" xmlns:xlink="http://www.w3.org/1999/xlink" xml:space="preserve" xmlns:serif="http://www.serif.com/" style="fill-rule:evenodd;clip-rule:evenodd;stroke-linejoin:round;stroke-miterlimit:2;">
    <g>
        <path d="M770.998,240.996C735.819,246.209 725.166,254.62 593.137,278.562C445.288,305.373 398.752,281.6 359.099,314.832C325.698,342.825 336.5,343.773 279.843,462.801C209.906,609.732 194.634,636.405 186.585,672.554C182.196,692.264 188.923,786.016 193.933,818.7C199.176,852.906 268.173,865.396 316.287,860.614C380.327,854.249 412.959,840.709 414.924,815.444C415.7,805.458 404.894,755.923 403.814,742.218C403.454,737.654 408.425,733.034 413.561,732.735C460.585,729.995 487.435,715.742 521.923,694.509C551.924,676.037 583.798,651.454 626.59,647.263C713.758,638.726 745.877,685.682 783.475,686.395C799.292,686.695 823.608,669.619 820.616,641.687C818.227,619.392 799.59,590.486 763.128,571.355C735.235,556.72 690.907,545.789 657.78,547.409C575.722,551.423 559.84,523.391 547.146,505.801C673.666,488.124 781.939,434.036 759.305,384.332C776.621,375.217 822.543,334.446 805.007,303.073C825.699,284.336 822.672,233.34 770.998,240.996Z" style="fill:rgb(255,213,67);"/>
        <path d="M435.649,396.374C428.633,396.429 429.568,406.88 435.783,407.035C500.348,408.641 603.167,408.766 734.577,376.793C742.153,374.95 748.181,375.835 755.253,380.648C761.305,384.767 761.584,376.671 758.913,373.529C755.82,369.892 745.26,362.793 730.722,365.812C600.529,392.848 571.422,395.32 435.649,396.374Z" style="fill:rgb(227,159,44);"/>
        <path d="M441.86,332.777C435.373,332.832 435.242,322.198 442.128,322.004C508.378,320.138 627.146,317.86 770.016,281.397C779.901,278.874 796.472,282.307 803.114,291.287C805.292,294.232 802.99,300.212 797.851,297.101C793.713,294.596 784.032,289.529 774.109,292.238C716.586,307.946 611.188,331.347 441.86,332.777Z" style="fill:rgb(227,159,44);"/>
        <path d="M372.834,698.982C369.432,700.054 372.063,706.396 376.809,704.98C412.762,694.254 467.874,665.115 508.524,532.959C521.326,527.722 539.393,520.132 545.675,515.848C549.732,513.081 545.546,504.59 538.963,506.579C527.127,510.156 521.275,511.326 495.299,512.68C482.577,548.368 442.809,676.955 372.834,698.982Z" style="fill:rgb(227,159,44);"/>
    </g>
</svg>
